<?xml version="1.0" encoding="UTF-8" standalone="no"?>
<svg
   xmlns:dc="http://purl.org/dc/elements/1.1/"
   xmlns:cc="http://creativecommons.org/ns#"
   xmlns:rdf="http://www.w3.org/1999/02/22-rdf-syntax-ns#"
   xmlns:svg="http://www.w3.org/2000/svg"
   xmlns="http://www.w3.org/2000/svg"
   viewBox="0 0 1440 1440"
   height="1440"
   width="1440"
   xml:space="preserve"
   id="svg2"
   version="1.1"><metadata
     id="metadata8"><rdf:RDF><cc:Work
         rdf:about=""><dc:format>image/svg+xml</dc:format><dc:type
           rdf:resource="http://purl.org/dc/dcmitype/StillImage" /></cc:Work></rdf:RDF></metadata><defs
     id="defs6"><clipPath
       id="clipPath18"
       clipPathUnits="userSpaceOnUse"><path
         id="path16"
         d="M 0,1080 H 1080 V 0 H 0 Z" /></clipPath></defs><g
     transform="matrix(1.3333333,0,0,-1.3333333,0,1440)"
     id="g10"><g
       id="g12"><g
         clip-path="url(#clipPath18)"
         id="g14"><g
           transform="translate(637.9469,959.5958)"
           id="g20"><path
             id="path22"
             style="fill:#e52027;fill-opacity:1;fill-rule:nonzero;stroke:none"
             d="m 0,0 h -195.894 c -89.297,0 -171.811,-47.64 -216.46,-124.973 l -97.947,-169.649 c -44.649,-77.334 -44.649,-172.613 0,-249.947 l 97.947,-169.649 c 44.649,-77.334 127.163,-124.974 216.46,-124.974 H 0 c 89.297,0 171.812,47.64 216.46,124.974 l 97.947,169.649 c 44.649,77.334 44.649,172.613 0,249.947 L 216.46,-124.973 C 171.812,-47.64 89.297,0 0,0" /></g><g
           transform="translate(728.1157,604.889)"
           id="g24"><path
             id="path26"
             style="fill:#ffffff;fill-opacity:1;fill-rule:nonzero;stroke:none"
             d="M 0,0 V -34.507 C 0,-56.921 -18.17,-75.092 -40.585,-75.092 H -71.52 c -60.948,0 -110.356,-49.408 -110.356,-110.356 v -142.46 c 0,-22.414 -18.171,-40.584 -40.585,-40.584 h -40.857 c -22.414,0 -40.584,18.17 -40.584,40.584 v 163.072 c 0,113.451 91.97,205.421 205.42,205.421 h 57.897 C -18.17,40.585 0,22.414 0,0" /></g><g
           transform="translate(584.8654,762.6219)"
           id="g28"><path
             id="path30"
             style="fill:#ffffff;fill-opacity:1;fill-rule:nonzero;stroke:none"
             d="m 0,0 c 0,-40.73 -33.018,-73.748 -73.748,-73.748 -40.73,0 -73.749,33.018 -73.749,73.748 0,40.73 33.019,73.748 73.749,73.748 C -33.018,73.748 0,40.73 0,0" /></g></g></g></g></svg>
